<mxfile host="app.diagrams.net" agent="Mozilla/5.0 (Macintosh; Intel Mac OS X 10_15_7) AppleWebKit/605.1.15 (KHTML, like Gecko) Version/17.6 Safari/605.1.15" version="24.7.17">
  <diagram name="Page-1" id="9f46799a-70d6-7492-0946-bef42562c5a5">
    <mxGraphModel dx="2080" dy="1546" grid="1" gridSize="10" guides="1" tooltips="1" connect="1" arrows="1" fold="1" page="1" pageScale="1" pageWidth="3300" pageHeight="2339" background="none" math="0" shadow="0">
      <root>
        <mxCell id="0" />
        <mxCell id="1" parent="0" />
        <mxCell id="Mne86STeSMznGKmQwHmi-11" value="" style="edgeStyle=orthogonalEdgeStyle;rounded=0;orthogonalLoop=1;jettySize=auto;html=1;endArrow=diamondThin;endFill=0;fontSize=13;exitX=0.5;exitY=0;exitDx=0;exitDy=0;" parent="1" source="Mne86STeSMznGKmQwHmi-26" target="78961159f06e98e8-17" edge="1">
          <mxGeometry relative="1" as="geometry">
            <mxPoint x="1310" y="470" as="sourcePoint" />
          </mxGeometry>
        </mxCell>
        <mxCell id="78961159f06e98e8-17" value="User" style="swimlane;html=1;fontStyle=1;align=center;verticalAlign=top;childLayout=stackLayout;horizontal=1;startSize=26;horizontalStack=0;resizeParent=1;resizeLast=0;collapsible=1;marginBottom=0;swimlaneFillColor=#ffffff;rounded=0;shadow=0;comic=0;labelBackgroundColor=none;strokeWidth=1;fillColor=none;fontFamily=Verdana;fontSize=12" parent="1" vertex="1">
          <mxGeometry x="1100" y="30" width="160" height="320" as="geometry" />
        </mxCell>
        <mxCell id="78961159f06e98e8-21" value="- id: int" style="text;html=1;strokeColor=none;fillColor=none;align=left;verticalAlign=top;spacingLeft=4;spacingRight=4;whiteSpace=wrap;overflow=hidden;rotatable=0;points=[[0,0.5],[1,0.5]];portConstraint=eastwest;" parent="78961159f06e98e8-17" vertex="1">
          <mxGeometry y="26" width="160" height="26" as="geometry" />
        </mxCell>
        <mxCell id="78961159f06e98e8-23" value="- username: string" style="text;html=1;strokeColor=none;fillColor=none;align=left;verticalAlign=top;spacingLeft=4;spacingRight=4;whiteSpace=wrap;overflow=hidden;rotatable=0;points=[[0,0.5],[1,0.5]];portConstraint=eastwest;" parent="78961159f06e98e8-17" vertex="1">
          <mxGeometry y="52" width="160" height="26" as="geometry" />
        </mxCell>
        <mxCell id="78961159f06e98e8-25" value="- email: string" style="text;html=1;strokeColor=none;fillColor=none;align=left;verticalAlign=top;spacingLeft=4;spacingRight=4;whiteSpace=wrap;overflow=hidden;rotatable=0;points=[[0,0.5],[1,0.5]];portConstraint=eastwest;" parent="78961159f06e98e8-17" vertex="1">
          <mxGeometry y="78" width="160" height="26" as="geometry" />
        </mxCell>
        <mxCell id="78961159f06e98e8-26" value="- userType: string" style="text;html=1;strokeColor=none;fillColor=none;align=left;verticalAlign=top;spacingLeft=4;spacingRight=4;whiteSpace=wrap;overflow=hidden;rotatable=0;points=[[0,0.5],[1,0.5]];portConstraint=eastwest;" parent="78961159f06e98e8-17" vertex="1">
          <mxGeometry y="104" width="160" height="26" as="geometry" />
        </mxCell>
        <mxCell id="78961159f06e98e8-19" value="" style="line;html=1;strokeWidth=1;fillColor=none;align=left;verticalAlign=middle;spacingTop=-1;spacingLeft=3;spacingRight=3;rotatable=0;labelPosition=right;points=[];portConstraint=eastwest;" parent="78961159f06e98e8-17" vertex="1">
          <mxGeometry y="130" width="160" height="8" as="geometry" />
        </mxCell>
        <mxCell id="78961159f06e98e8-20" value="+ login()" style="text;html=1;strokeColor=none;fillColor=none;align=left;verticalAlign=top;spacingLeft=4;spacingRight=4;whiteSpace=wrap;overflow=hidden;rotatable=0;points=[[0,0.5],[1,0.5]];portConstraint=eastwest;" parent="78961159f06e98e8-17" vertex="1">
          <mxGeometry y="138" width="160" height="26" as="geometry" />
        </mxCell>
        <mxCell id="78961159f06e98e8-27" value="+ logout()&lt;div&gt;&lt;br&gt;&lt;/div&gt;&lt;div&gt;+ register()&lt;/div&gt;&lt;div&gt;&lt;br&gt;&lt;/div&gt;&lt;div&gt;+ addUser()&lt;/div&gt;&lt;div&gt;&lt;br&gt;&lt;/div&gt;&lt;div&gt;+ deactivateUser()&lt;/div&gt;&lt;div&gt;&lt;br&gt;&lt;/div&gt;&lt;div&gt;+ listUsers()&lt;/div&gt;" style="text;html=1;strokeColor=none;fillColor=none;align=left;verticalAlign=top;spacingLeft=4;spacingRight=4;whiteSpace=wrap;overflow=hidden;rotatable=0;points=[[0,0.5],[1,0.5]];portConstraint=eastwest;" parent="78961159f06e98e8-17" vertex="1">
          <mxGeometry y="164" width="160" height="156" as="geometry" />
        </mxCell>
        <mxCell id="Mne86STeSMznGKmQwHmi-3" value="Microorganism" style="swimlane;html=1;fontStyle=1;align=center;verticalAlign=top;childLayout=stackLayout;horizontal=1;startSize=26;horizontalStack=0;resizeParent=1;resizeLast=0;collapsible=1;marginBottom=0;swimlaneFillColor=#ffffff;rounded=0;shadow=0;comic=0;labelBackgroundColor=none;strokeWidth=1;fillColor=none;fontFamily=Verdana;fontSize=12" parent="1" vertex="1">
          <mxGeometry x="1130" y="560" width="160" height="157" as="geometry" />
        </mxCell>
        <mxCell id="Mne86STeSMznGKmQwHmi-4" value="- id: int" style="text;html=1;strokeColor=none;fillColor=none;align=left;verticalAlign=top;spacingLeft=4;spacingRight=4;whiteSpace=wrap;overflow=hidden;rotatable=0;points=[[0,0.5],[1,0.5]];portConstraint=eastwest;" parent="Mne86STeSMznGKmQwHmi-3" vertex="1">
          <mxGeometry y="26" width="160" height="26" as="geometry" />
        </mxCell>
        <mxCell id="Mne86STeSMznGKmQwHmi-5" value="- type: string" style="text;html=1;strokeColor=none;fillColor=none;align=left;verticalAlign=top;spacingLeft=4;spacingRight=4;whiteSpace=wrap;overflow=hidden;rotatable=0;points=[[0,0.5],[1,0.5]];portConstraint=eastwest;" parent="Mne86STeSMznGKmQwHmi-3" vertex="1">
          <mxGeometry y="52" width="160" height="26" as="geometry" />
        </mxCell>
        <mxCell id="Mne86STeSMznGKmQwHmi-8" value="" style="line;html=1;strokeWidth=1;fillColor=none;align=left;verticalAlign=middle;spacingTop=-1;spacingLeft=3;spacingRight=3;rotatable=0;labelPosition=right;points=[];portConstraint=eastwest;" parent="Mne86STeSMznGKmQwHmi-3" vertex="1">
          <mxGeometry y="78" width="160" height="8" as="geometry" />
        </mxCell>
        <mxCell id="Mne86STeSMznGKmQwHmi-9" value="+ getList()&lt;div&gt;&lt;br&gt;&lt;/div&gt;&lt;div&gt;+ getDetails()&lt;/div&gt;" style="text;html=1;strokeColor=none;fillColor=none;align=left;verticalAlign=top;spacingLeft=4;spacingRight=4;whiteSpace=wrap;overflow=hidden;rotatable=0;points=[[0,0.5],[1,0.5]];portConstraint=eastwest;" parent="Mne86STeSMznGKmQwHmi-3" vertex="1">
          <mxGeometry y="86" width="160" height="64" as="geometry" />
        </mxCell>
        <mxCell id="Mne86STeSMznGKmQwHmi-13" value="Bacteria" style="swimlane;html=1;fontStyle=1;align=center;verticalAlign=top;childLayout=stackLayout;horizontal=1;startSize=26;horizontalStack=0;resizeParent=1;resizeLast=0;collapsible=1;marginBottom=0;swimlaneFillColor=#ffffff;rounded=0;shadow=0;comic=0;labelBackgroundColor=none;strokeWidth=1;fillColor=none;fontFamily=Verdana;fontSize=12" parent="1" vertex="1">
          <mxGeometry x="1470" y="460" width="160" height="330" as="geometry" />
        </mxCell>
        <mxCell id="Mne86STeSMznGKmQwHmi-14" value="- id: int" style="text;html=1;strokeColor=none;fillColor=none;align=left;verticalAlign=top;spacingLeft=4;spacingRight=4;whiteSpace=wrap;overflow=hidden;rotatable=0;points=[[0,0.5],[1,0.5]];portConstraint=eastwest;" parent="Mne86STeSMznGKmQwHmi-13" vertex="1">
          <mxGeometry y="26" width="160" height="26" as="geometry" />
        </mxCell>
        <mxCell id="Mne86STeSMznGKmQwHmi-15" value="- MicroorganismId: int&lt;div&gt;&lt;br&gt;&lt;div&gt;- BacteriaTaxonomyId: int&lt;/div&gt;&lt;div&gt;&lt;br&gt;&lt;/div&gt;&lt;div&gt;- CollectionId: int&lt;/div&gt;&lt;div&gt;&lt;br&gt;&lt;/div&gt;&lt;div&gt;- IsolateDetailsId: int&lt;/div&gt;&lt;div&gt;&lt;br&gt;&lt;/div&gt;&lt;div&gt;- name: string&lt;/div&gt;&lt;/div&gt;" style="text;html=1;strokeColor=none;fillColor=none;align=left;verticalAlign=top;spacingLeft=4;spacingRight=4;whiteSpace=wrap;overflow=hidden;rotatable=0;points=[[0,0.5],[1,0.5]];portConstraint=eastwest;" parent="Mne86STeSMznGKmQwHmi-13" vertex="1">
          <mxGeometry y="52" width="160" height="138" as="geometry" />
        </mxCell>
        <mxCell id="Mne86STeSMznGKmQwHmi-16" value="" style="line;html=1;strokeWidth=1;fillColor=none;align=left;verticalAlign=middle;spacingTop=-1;spacingLeft=3;spacingRight=3;rotatable=0;labelPosition=right;points=[];portConstraint=eastwest;" parent="Mne86STeSMznGKmQwHmi-13" vertex="1">
          <mxGeometry y="190" width="160" height="20" as="geometry" />
        </mxCell>
        <mxCell id="Mne86STeSMznGKmQwHmi-17" value="+ getList()&lt;div&gt;&lt;br&gt;&lt;/div&gt;&lt;div&gt;+ getDetails()&lt;/div&gt;&lt;div&gt;&lt;br&gt;&lt;/div&gt;&lt;div&gt;+ editBacteria()&lt;/div&gt;&lt;div&gt;&lt;br&gt;&lt;/div&gt;&lt;div&gt;+ deleteBacteria()&lt;/div&gt;" style="text;html=1;strokeColor=none;fillColor=none;align=left;verticalAlign=top;spacingLeft=4;spacingRight=4;whiteSpace=wrap;overflow=hidden;rotatable=0;points=[[0,0.5],[1,0.5]];portConstraint=eastwest;" parent="Mne86STeSMznGKmQwHmi-13" vertex="1">
          <mxGeometry y="210" width="160" height="120" as="geometry" />
        </mxCell>
        <mxCell id="Mne86STeSMznGKmQwHmi-26" value="Yeasts" style="swimlane;html=1;fontStyle=1;align=center;verticalAlign=top;childLayout=stackLayout;horizontal=1;startSize=26;horizontalStack=0;resizeParent=1;resizeLast=0;collapsible=1;marginBottom=0;swimlaneFillColor=#ffffff;rounded=0;shadow=0;comic=0;labelBackgroundColor=none;strokeWidth=1;fillColor=none;fontFamily=Verdana;fontSize=12" parent="1" vertex="1">
          <mxGeometry x="780" y="490" width="190" height="420" as="geometry" />
        </mxCell>
        <mxCell id="Mne86STeSMznGKmQwHmi-27" value="- id: int" style="text;html=1;strokeColor=none;fillColor=none;align=left;verticalAlign=top;spacingLeft=4;spacingRight=4;whiteSpace=wrap;overflow=hidden;rotatable=0;points=[[0,0.5],[1,0.5]];portConstraint=eastwest;" parent="Mne86STeSMznGKmQwHmi-26" vertex="1">
          <mxGeometry y="26" width="190" height="26" as="geometry" />
        </mxCell>
        <mxCell id="Mne86STeSMznGKmQwHmi-28" value="- FungiId: int&lt;div&gt;&lt;br&gt;&lt;div&gt;- YeastTaxonomyId: int&lt;/div&gt;&lt;div&gt;&lt;br&gt;&lt;/div&gt;&lt;div&gt;- CollectionId: int&lt;/div&gt;&lt;div&gt;&lt;br&gt;&lt;/div&gt;&lt;div&gt;- IsolateDetailsId: int&lt;/div&gt;&lt;div&gt;&lt;br&gt;&lt;/div&gt;&lt;div&gt;- isolateName: string&lt;/div&gt;&lt;/div&gt;&lt;div&gt;&lt;br&gt;&lt;/div&gt;&lt;div&gt;- isolateCode: string&lt;/div&gt;&lt;div&gt;&lt;br&gt;&lt;/div&gt;&lt;div&gt;- safetyInformationn: string&lt;/div&gt;&lt;div&gt;&lt;br&gt;&lt;/div&gt;&lt;div&gt;- technologicalProperties : string&lt;/div&gt;" style="text;html=1;strokeColor=none;fillColor=none;align=left;verticalAlign=top;spacingLeft=4;spacingRight=4;whiteSpace=wrap;overflow=hidden;rotatable=0;points=[[0,0.5],[1,0.5]];portConstraint=eastwest;" parent="Mne86STeSMznGKmQwHmi-26" vertex="1">
          <mxGeometry y="52" width="190" height="228" as="geometry" />
        </mxCell>
        <mxCell id="Mne86STeSMznGKmQwHmi-29" value="" style="line;html=1;strokeWidth=1;fillColor=none;align=left;verticalAlign=middle;spacingTop=-1;spacingLeft=3;spacingRight=3;rotatable=0;labelPosition=right;points=[];portConstraint=eastwest;" parent="Mne86STeSMznGKmQwHmi-26" vertex="1">
          <mxGeometry y="280" width="190" height="20" as="geometry" />
        </mxCell>
        <mxCell id="Mne86STeSMznGKmQwHmi-30" value="+ getList()&lt;div&gt;&lt;br&gt;&lt;/div&gt;&lt;div&gt;+ getDetails()&lt;/div&gt;&lt;div&gt;&lt;br&gt;&lt;/div&gt;&lt;div&gt;+ editYeast()&lt;/div&gt;&lt;div&gt;&lt;br&gt;&lt;/div&gt;&lt;div&gt;+ deleteYeast()&lt;/div&gt;" style="text;html=1;strokeColor=none;fillColor=none;align=left;verticalAlign=top;spacingLeft=4;spacingRight=4;whiteSpace=wrap;overflow=hidden;rotatable=0;points=[[0,0.5],[1,0.5]];portConstraint=eastwest;" parent="Mne86STeSMznGKmQwHmi-26" vertex="1">
          <mxGeometry y="300" width="190" height="120" as="geometry" />
        </mxCell>
        <mxCell id="Mne86STeSMznGKmQwHmi-33" value="Bacteria Taxonomy" style="swimlane;html=1;fontStyle=1;align=center;verticalAlign=top;childLayout=stackLayout;horizontal=1;startSize=26;horizontalStack=0;resizeParent=1;resizeLast=0;collapsible=1;marginBottom=0;swimlaneFillColor=#ffffff;rounded=0;shadow=0;comic=0;labelBackgroundColor=none;strokeWidth=1;fillColor=none;fontFamily=Verdana;fontSize=12" parent="1" vertex="1">
          <mxGeometry x="1880" y="535.25" width="170" height="206.5" as="geometry" />
        </mxCell>
        <mxCell id="Mne86STeSMznGKmQwHmi-34" value="- id: int" style="text;html=1;strokeColor=none;fillColor=none;align=left;verticalAlign=top;spacingLeft=4;spacingRight=4;whiteSpace=wrap;overflow=hidden;rotatable=0;points=[[0,0.5],[1,0.5]];portConstraint=eastwest;" parent="Mne86STeSMznGKmQwHmi-33" vertex="1">
          <mxGeometry y="26" width="170" height="26" as="geometry" />
        </mxCell>
        <mxCell id="Mne86STeSMznGKmQwHmi-35" value="- phylum: string&lt;div&gt;&lt;br&gt;&lt;div&gt;- bacteriaClass: string&lt;/div&gt;&lt;div&gt;&lt;br&gt;&lt;/div&gt;&lt;div&gt;- genus: string&lt;/div&gt;&lt;div&gt;&lt;br&gt;&lt;/div&gt;&lt;div&gt;- species: string&lt;/div&gt;&lt;div&gt;&lt;br&gt;&lt;/div&gt;&lt;/div&gt;" style="text;html=1;strokeColor=none;fillColor=none;align=left;verticalAlign=top;spacingLeft=4;spacingRight=4;whiteSpace=wrap;overflow=hidden;rotatable=0;points=[[0,0.5],[1,0.5]];portConstraint=eastwest;" parent="Mne86STeSMznGKmQwHmi-33" vertex="1">
          <mxGeometry y="52" width="170" height="118" as="geometry" />
        </mxCell>
        <mxCell id="Mne86STeSMznGKmQwHmi-36" value="" style="line;html=1;strokeWidth=1;fillColor=none;align=left;verticalAlign=middle;spacingTop=-1;spacingLeft=3;spacingRight=3;rotatable=0;labelPosition=right;points=[];portConstraint=eastwest;" parent="Mne86STeSMznGKmQwHmi-33" vertex="1">
          <mxGeometry y="170" width="170" height="20" as="geometry" />
        </mxCell>
        <mxCell id="Mne86STeSMznGKmQwHmi-40" value="Collection" style="swimlane;html=1;fontStyle=1;align=center;verticalAlign=top;childLayout=stackLayout;horizontal=1;startSize=26;horizontalStack=0;resizeParent=1;resizeLast=0;collapsible=1;marginBottom=0;swimlaneFillColor=#ffffff;rounded=0;shadow=0;comic=0;labelBackgroundColor=none;strokeWidth=1;fillColor=none;fontFamily=Verdana;fontSize=12" parent="1" vertex="1">
          <mxGeometry x="1300" y="890" width="170" height="153" as="geometry" />
        </mxCell>
        <mxCell id="Mne86STeSMznGKmQwHmi-41" value="- id: int" style="text;html=1;strokeColor=none;fillColor=none;align=left;verticalAlign=top;spacingLeft=4;spacingRight=4;whiteSpace=wrap;overflow=hidden;rotatable=0;points=[[0,0.5],[1,0.5]];portConstraint=eastwest;" parent="Mne86STeSMznGKmQwHmi-40" vertex="1">
          <mxGeometry y="26" width="170" height="26" as="geometry" />
        </mxCell>
        <mxCell id="Mne86STeSMznGKmQwHmi-42" value="- collectionCode: string&lt;div&gt;&lt;br&gt;&lt;/div&gt;&lt;div&gt;- otherCollectionCode: string&lt;/div&gt;" style="text;html=1;strokeColor=none;fillColor=none;align=left;verticalAlign=top;spacingLeft=4;spacingRight=4;whiteSpace=wrap;overflow=hidden;rotatable=0;points=[[0,0.5],[1,0.5]];portConstraint=eastwest;" parent="Mne86STeSMznGKmQwHmi-40" vertex="1">
          <mxGeometry y="52" width="170" height="58" as="geometry" />
        </mxCell>
        <mxCell id="Mne86STeSMznGKmQwHmi-43" value="" style="line;html=1;strokeWidth=1;fillColor=none;align=left;verticalAlign=middle;spacingTop=-1;spacingLeft=3;spacingRight=3;rotatable=0;labelPosition=right;points=[];portConstraint=eastwest;" parent="Mne86STeSMznGKmQwHmi-40" vertex="1">
          <mxGeometry y="110" width="170" height="20" as="geometry" />
        </mxCell>
        <mxCell id="Mne86STeSMznGKmQwHmi-44" value="Isolate Details" style="swimlane;html=1;fontStyle=1;align=center;verticalAlign=top;childLayout=stackLayout;horizontal=1;startSize=26;horizontalStack=0;resizeParent=1;resizeLast=0;collapsible=1;marginBottom=0;swimlaneFillColor=#ffffff;rounded=0;shadow=0;comic=0;labelBackgroundColor=none;strokeWidth=1;fillColor=none;fontFamily=Verdana;fontSize=12" parent="1" vertex="1">
          <mxGeometry x="1100" y="1190" width="170" height="626.5" as="geometry" />
        </mxCell>
        <mxCell id="Mne86STeSMznGKmQwHmi-46" value="&lt;div&gt;&lt;div&gt;- id: int&lt;br&gt;&lt;/div&gt;&lt;div&gt;&lt;br&gt;&lt;/div&gt;&lt;div&gt;- originId: int&lt;/div&gt;&lt;/div&gt;&lt;div&gt;&lt;br&gt;&lt;/div&gt;&lt;div&gt;- dateArival: DateTiime&lt;/div&gt;&lt;div&gt;&lt;br&gt;&lt;/div&gt;&lt;div&gt;- dateDeposit: DateTime&lt;/div&gt;&lt;div&gt;&lt;br&gt;&lt;/div&gt;&lt;div&gt;- nameDepositor: string&lt;/div&gt;&lt;div&gt;&lt;br&gt;&lt;/div&gt;&lt;div&gt;- isolatedBy: string&lt;/div&gt;&lt;div&gt;&lt;br&gt;&lt;/div&gt;&lt;div&gt;- isolationDate: DateTime&lt;/div&gt;&lt;div&gt;&lt;br&gt;&lt;/div&gt;&lt;div&gt;- identifiedBy: string&lt;/div&gt;&lt;div&gt;&lt;br&gt;&lt;/div&gt;&lt;div&gt;- identificationDate: DateTime&lt;/div&gt;&lt;div&gt;&lt;br&gt;&lt;/div&gt;&lt;div&gt;- identificationMethod: string&lt;/div&gt;&lt;div&gt;&lt;br&gt;&lt;/div&gt;&lt;div&gt;- specificRemarks: string&lt;/div&gt;&lt;div&gt;&lt;br&gt;&lt;/div&gt;&lt;div&gt;- type: string&lt;/div&gt;&lt;div&gt;&lt;br&gt;&lt;/div&gt;&lt;div&gt;- growthConditionsId: int&lt;/div&gt;&lt;div&gt;&lt;br&gt;&lt;/div&gt;&lt;div&gt;- morphologyId: int&lt;/div&gt;&lt;div&gt;&lt;br&gt;&lt;/div&gt;&lt;div&gt;- dnaId: int&lt;/div&gt;&lt;div&gt;&lt;br&gt;&lt;/div&gt;&lt;div&gt;- storageDetailsId: int&lt;/div&gt;&lt;div&gt;&lt;br&gt;&lt;/div&gt;&lt;div&gt;- chemAnalysis: int&lt;/div&gt;&lt;div&gt;&lt;br&gt;&lt;/div&gt;&lt;div&gt;- screeningId: int&lt;/div&gt;&lt;div&gt;&lt;br&gt;&lt;/div&gt;&lt;div&gt;- sourceId: int&lt;/div&gt;&lt;div&gt;&lt;br&gt;&lt;/div&gt;&lt;div&gt;- pcrId: int&lt;/div&gt;" style="text;html=1;strokeColor=none;fillColor=none;align=left;verticalAlign=top;spacingLeft=4;spacingRight=4;whiteSpace=wrap;overflow=hidden;rotatable=0;points=[[0,0.5],[1,0.5]];portConstraint=eastwest;" parent="Mne86STeSMznGKmQwHmi-44" vertex="1">
          <mxGeometry y="26" width="170" height="564" as="geometry" />
        </mxCell>
        <mxCell id="Mne86STeSMznGKmQwHmi-47" value="" style="line;html=1;strokeWidth=1;fillColor=none;align=left;verticalAlign=middle;spacingTop=-1;spacingLeft=3;spacingRight=3;rotatable=0;labelPosition=right;points=[];portConstraint=eastwest;" parent="Mne86STeSMznGKmQwHmi-44" vertex="1">
          <mxGeometry y="590" width="170" height="20" as="geometry" />
        </mxCell>
        <mxCell id="Mne86STeSMznGKmQwHmi-48" value="Fungi" style="swimlane;html=1;fontStyle=1;align=center;verticalAlign=top;childLayout=stackLayout;horizontal=1;startSize=26;horizontalStack=0;resizeParent=1;resizeLast=0;collapsible=1;marginBottom=0;swimlaneFillColor=#ffffff;rounded=0;shadow=0;comic=0;labelBackgroundColor=none;strokeWidth=1;fillColor=none;fontFamily=Verdana;fontSize=12" parent="1" vertex="1">
          <mxGeometry x="300" y="420" width="170" height="140" as="geometry" />
        </mxCell>
        <mxCell id="Mne86STeSMznGKmQwHmi-49" value="- id: int" style="text;html=1;strokeColor=none;fillColor=none;align=left;verticalAlign=top;spacingLeft=4;spacingRight=4;whiteSpace=wrap;overflow=hidden;rotatable=0;points=[[0,0.5],[1,0.5]];portConstraint=eastwest;" parent="Mne86STeSMznGKmQwHmi-48" vertex="1">
          <mxGeometry y="26" width="170" height="26" as="geometry" />
        </mxCell>
        <mxCell id="Mne86STeSMznGKmQwHmi-50" value="&lt;div&gt;&lt;div&gt;- microorganismId: int&lt;/div&gt;&lt;/div&gt;&lt;div&gt;&lt;br&gt;&lt;/div&gt;&lt;div&gt;- fungiType: string&lt;/div&gt;" style="text;html=1;strokeColor=none;fillColor=none;align=left;verticalAlign=top;spacingLeft=4;spacingRight=4;whiteSpace=wrap;overflow=hidden;rotatable=0;points=[[0,0.5],[1,0.5]];portConstraint=eastwest;" parent="Mne86STeSMznGKmQwHmi-48" vertex="1">
          <mxGeometry y="52" width="170" height="58" as="geometry" />
        </mxCell>
        <mxCell id="Mne86STeSMznGKmQwHmi-51" value="" style="line;html=1;strokeWidth=1;fillColor=none;align=left;verticalAlign=middle;spacingTop=-1;spacingLeft=3;spacingRight=3;rotatable=0;labelPosition=right;points=[];portConstraint=eastwest;" parent="Mne86STeSMznGKmQwHmi-48" vertex="1">
          <mxGeometry y="110" width="170" height="20" as="geometry" />
        </mxCell>
        <mxCell id="Mne86STeSMznGKmQwHmi-52" value="Yeast Taxonomy" style="swimlane;html=1;fontStyle=1;align=center;verticalAlign=top;childLayout=stackLayout;horizontal=1;startSize=26;horizontalStack=0;resizeParent=1;resizeLast=0;collapsible=1;marginBottom=0;swimlaneFillColor=#ffffff;rounded=0;shadow=0;comic=0;labelBackgroundColor=none;strokeWidth=1;fillColor=none;fontFamily=Verdana;fontSize=12" parent="1" vertex="1">
          <mxGeometry x="300" y="600" width="180" height="290" as="geometry" />
        </mxCell>
        <mxCell id="Mne86STeSMznGKmQwHmi-53" value="- id: int" style="text;html=1;strokeColor=none;fillColor=none;align=left;verticalAlign=top;spacingLeft=4;spacingRight=4;whiteSpace=wrap;overflow=hidden;rotatable=0;points=[[0,0.5],[1,0.5]];portConstraint=eastwest;" parent="Mne86STeSMznGKmQwHmi-52" vertex="1">
          <mxGeometry y="26" width="180" height="26" as="geometry" />
        </mxCell>
        <mxCell id="Mne86STeSMznGKmQwHmi-54" value="- phylum: string&lt;div&gt;&lt;br&gt;&lt;div&gt;- yeastClass: string&lt;/div&gt;&lt;div&gt;&lt;br&gt;&lt;/div&gt;&lt;div&gt;- order: string&lt;/div&gt;&lt;div&gt;&lt;br&gt;&lt;/div&gt;&lt;div&gt;- family: string&lt;/div&gt;&lt;div&gt;&lt;br&gt;&lt;/div&gt;&lt;div&gt;- genus: string&lt;/div&gt;&lt;div&gt;&lt;br&gt;&lt;/div&gt;&lt;div&gt;- species: string&lt;/div&gt;&lt;div&gt;&lt;br&gt;&lt;/div&gt;&lt;/div&gt;&lt;div&gt;- speciesNameChanges: string&lt;/div&gt;" style="text;html=1;strokeColor=none;fillColor=none;align=left;verticalAlign=top;spacingLeft=4;spacingRight=4;whiteSpace=wrap;overflow=hidden;rotatable=0;points=[[0,0.5],[1,0.5]];portConstraint=eastwest;" parent="Mne86STeSMznGKmQwHmi-52" vertex="1">
          <mxGeometry y="52" width="180" height="198" as="geometry" />
        </mxCell>
        <mxCell id="Mne86STeSMznGKmQwHmi-55" value="" style="line;html=1;strokeWidth=1;fillColor=none;align=left;verticalAlign=middle;spacingTop=-1;spacingLeft=3;spacingRight=3;rotatable=0;labelPosition=right;points=[];portConstraint=eastwest;" parent="Mne86STeSMznGKmQwHmi-52" vertex="1">
          <mxGeometry y="250" width="180" height="40" as="geometry" />
        </mxCell>
        <mxCell id="Mne86STeSMznGKmQwHmi-56" value="manages" style="text;html=1;align=center;verticalAlign=middle;resizable=0;points=[];autosize=1;strokeColor=none;fillColor=none;" parent="1" vertex="1">
          <mxGeometry x="1210" y="370" width="70" height="30" as="geometry" />
        </mxCell>
        <mxCell id="Mne86STeSMznGKmQwHmi-57" value="1" style="text;html=1;align=center;verticalAlign=middle;resizable=0;points=[];autosize=1;strokeColor=none;fillColor=none;fontSize=14;" parent="1" vertex="1">
          <mxGeometry x="1185" y="348" width="30" height="30" as="geometry" />
        </mxCell>
        <mxCell id="Mne86STeSMznGKmQwHmi-58" value="*" style="text;html=1;align=center;verticalAlign=middle;resizable=0;points=[];autosize=1;strokeColor=none;fillColor=none;fontSize=15;" parent="1" vertex="1">
          <mxGeometry x="1190" y="390" width="30" height="30" as="geometry" />
        </mxCell>
        <mxCell id="Mne86STeSMznGKmQwHmi-66" value="" style="edgeStyle=orthogonalEdgeStyle;rounded=0;orthogonalLoop=1;jettySize=auto;html=1;endArrow=diamondThin;endFill=0;fontSize=13;exitX=0.5;exitY=0;exitDx=0;exitDy=0;entryX=0.164;entryY=0.062;entryDx=0;entryDy=0;entryPerimeter=0;" parent="1" source="Mne86STeSMznGKmQwHmi-13" target="Mne86STeSMznGKmQwHmi-57" edge="1">
          <mxGeometry relative="1" as="geometry">
            <mxPoint x="885" y="470" as="sourcePoint" />
            <mxPoint x="1190" y="360" as="targetPoint" />
          </mxGeometry>
        </mxCell>
        <mxCell id="Mne86STeSMznGKmQwHmi-67" value="manages" style="text;html=1;align=center;verticalAlign=middle;resizable=0;points=[];autosize=1;strokeColor=none;fillColor=none;" parent="1" vertex="1">
          <mxGeometry x="1098" y="370" width="70" height="30" as="geometry" />
        </mxCell>
        <mxCell id="Mne86STeSMznGKmQwHmi-68" value="1" style="text;html=1;align=center;verticalAlign=middle;resizable=0;points=[];autosize=1;strokeColor=none;fillColor=none;fontSize=14;" parent="1" vertex="1">
          <mxGeometry x="1153" y="348" width="30" height="30" as="geometry" />
        </mxCell>
        <mxCell id="Mne86STeSMznGKmQwHmi-69" value="*" style="text;html=1;align=center;verticalAlign=middle;resizable=0;points=[];autosize=1;strokeColor=none;fillColor=none;fontSize=15;" parent="1" vertex="1">
          <mxGeometry x="1155" y="390" width="30" height="30" as="geometry" />
        </mxCell>
        <mxCell id="Mne86STeSMznGKmQwHmi-70" value="" style="rounded=0;orthogonalLoop=1;jettySize=auto;html=1;endArrow=diamondThin;endFill=0;fontSize=13;exitX=1.002;exitY=0.396;exitDx=0;exitDy=0;entryX=-0.003;entryY=0.814;entryDx=0;entryDy=0;entryPerimeter=0;exitPerimeter=0;" parent="1" source="Mne86STeSMznGKmQwHmi-28" target="Mne86STeSMznGKmQwHmi-5" edge="1">
          <mxGeometry relative="1" as="geometry">
            <mxPoint x="1271.8399999999997" y="815.0440000000003" as="sourcePoint" />
            <mxPoint x="1088.1599999999999" y="839.9739999999999" as="targetPoint" />
          </mxGeometry>
        </mxCell>
        <mxCell id="Mne86STeSMznGKmQwHmi-71" value="" style="rounded=0;orthogonalLoop=1;jettySize=auto;html=1;endArrow=diamondThin;endFill=0;fontSize=13;exitX=0.002;exitY=0.923;exitDx=0;exitDy=0;entryX=1.005;entryY=1.006;entryDx=0;entryDy=0;entryPerimeter=0;exitPerimeter=0;" parent="1" source="Mne86STeSMznGKmQwHmi-15" target="Mne86STeSMznGKmQwHmi-5" edge="1">
          <mxGeometry relative="1" as="geometry">
            <mxPoint x="1484" y="627" as="sourcePoint" />
            <mxPoint x="1301" y="652" as="targetPoint" />
          </mxGeometry>
        </mxCell>
        <mxCell id="Mne86STeSMznGKmQwHmi-73" value="1" style="text;html=1;align=center;verticalAlign=middle;resizable=0;points=[];autosize=1;strokeColor=none;fillColor=none;fontSize=14;" parent="1" vertex="1">
          <mxGeometry x="1100" y="610" width="30" height="30" as="geometry" />
        </mxCell>
        <mxCell id="Mne86STeSMznGKmQwHmi-74" value="1" style="text;html=1;align=center;verticalAlign=middle;resizable=0;points=[];autosize=1;strokeColor=none;fillColor=none;fontSize=14;" parent="1" vertex="1">
          <mxGeometry x="1290" y="610" width="30" height="30" as="geometry" />
        </mxCell>
        <mxCell id="Mne86STeSMznGKmQwHmi-75" value="*" style="text;html=1;align=center;verticalAlign=middle;resizable=0;points=[];autosize=1;strokeColor=none;fillColor=none;fontSize=14;" parent="1" vertex="1">
          <mxGeometry x="965" y="608" width="30" height="30" as="geometry" />
        </mxCell>
        <mxCell id="Mne86STeSMznGKmQwHmi-76" value="*" style="text;html=1;align=center;verticalAlign=middle;resizable=0;points=[];autosize=1;strokeColor=none;fillColor=none;fontSize=14;" parent="1" vertex="1">
          <mxGeometry x="1440" y="618" width="30" height="30" as="geometry" />
        </mxCell>
        <mxCell id="Mne86STeSMznGKmQwHmi-77" value="is a type of" style="text;html=1;align=center;verticalAlign=middle;resizable=0;points=[];autosize=1;strokeColor=none;fillColor=none;" parent="1" vertex="1">
          <mxGeometry x="1340" y="608" width="80" height="30" as="geometry" />
        </mxCell>
        <mxCell id="Mne86STeSMznGKmQwHmi-78" value="is a type of" style="text;html=1;align=center;verticalAlign=middle;resizable=0;points=[];autosize=1;strokeColor=none;fillColor=none;" parent="1" vertex="1">
          <mxGeometry x="1010" y="600" width="80" height="30" as="geometry" />
        </mxCell>
        <mxCell id="Mne86STeSMznGKmQwHmi-79" value="" style="rounded=0;orthogonalLoop=1;jettySize=auto;html=1;endArrow=diamondThin;endFill=0;fontSize=13;exitX=0.353;exitY=0;exitDx=0;exitDy=0;entryX=1;entryY=0.5;entryDx=0;entryDy=0;edgeStyle=orthogonalEdgeStyle;exitPerimeter=0;" parent="1" source="Mne86STeSMznGKmQwHmi-44" target="Mne86STeSMznGKmQwHmi-30" edge="1">
          <mxGeometry relative="1" as="geometry">
            <mxPoint x="1000" y="770" as="sourcePoint" />
            <mxPoint x="1160" y="771" as="targetPoint" />
          </mxGeometry>
        </mxCell>
        <mxCell id="Mne86STeSMznGKmQwHmi-80" value="" style="rounded=0;orthogonalLoop=1;jettySize=auto;html=1;endArrow=diamondThin;endFill=0;fontSize=13;exitX=0.5;exitY=0;exitDx=0;exitDy=0;entryX=1.009;entryY=0.404;entryDx=0;entryDy=0;edgeStyle=orthogonalEdgeStyle;entryPerimeter=0;" parent="1" target="Mne86STeSMznGKmQwHmi-30" edge="1">
          <mxGeometry relative="1" as="geometry">
            <mxPoint x="1392.78" y="890" as="sourcePoint" />
            <mxPoint x="977.2099999999998" y="838.48" as="targetPoint" />
            <Array as="points">
              <mxPoint x="1393" y="839" />
            </Array>
          </mxGeometry>
        </mxCell>
        <mxCell id="Mne86STeSMznGKmQwHmi-81" value="" style="rounded=0;orthogonalLoop=1;jettySize=auto;html=1;endArrow=diamondThin;endFill=0;fontSize=13;entryX=0;entryY=0.722;entryDx=0;entryDy=0;edgeStyle=orthogonalEdgeStyle;entryPerimeter=0;exitX=0.868;exitY=-0.004;exitDx=0;exitDy=0;exitPerimeter=0;" parent="1" source="Mne86STeSMznGKmQwHmi-40" target="Mne86STeSMznGKmQwHmi-17" edge="1">
          <mxGeometry relative="1" as="geometry">
            <mxPoint x="1390" y="890" as="sourcePoint" />
            <mxPoint x="980" y="860" as="targetPoint" />
          </mxGeometry>
        </mxCell>
        <mxCell id="Mne86STeSMznGKmQwHmi-82" value="" style="rounded=0;orthogonalLoop=1;jettySize=auto;html=1;endArrow=diamondThin;endFill=0;fontSize=13;exitX=0.929;exitY=0.003;exitDx=0;exitDy=0;entryX=-0.02;entryY=0.575;entryDx=0;entryDy=0;edgeStyle=orthogonalEdgeStyle;entryPerimeter=0;exitPerimeter=0;" parent="1" source="Mne86STeSMznGKmQwHmi-44" target="Mne86STeSMznGKmQwHmi-17" edge="1">
          <mxGeometry relative="1" as="geometry">
            <mxPoint x="1395" y="900" as="sourcePoint" />
            <mxPoint x="979" y="848" as="targetPoint" />
          </mxGeometry>
        </mxCell>
        <mxCell id="Mne86STeSMznGKmQwHmi-83" value="1" style="text;html=1;align=center;verticalAlign=middle;resizable=0;points=[];autosize=1;strokeColor=none;fillColor=none;fontSize=14;" parent="1" vertex="1">
          <mxGeometry x="970" y="812" width="30" height="30" as="geometry" />
        </mxCell>
        <mxCell id="Mne86STeSMznGKmQwHmi-84" value="1" style="text;html=1;align=center;verticalAlign=middle;resizable=0;points=[];autosize=1;strokeColor=none;fillColor=none;fontSize=14;" parent="1" vertex="1">
          <mxGeometry x="1190" y="1160" width="30" height="30" as="geometry" />
        </mxCell>
        <mxCell id="Mne86STeSMznGKmQwHmi-85" value="1" style="text;html=1;align=center;verticalAlign=middle;resizable=0;points=[];autosize=1;strokeColor=none;fillColor=none;fontSize=14;" parent="1" vertex="1">
          <mxGeometry x="1425" y="708" width="30" height="30" as="geometry" />
        </mxCell>
        <mxCell id="Mne86STeSMznGKmQwHmi-86" value="1" style="text;html=1;align=center;verticalAlign=middle;resizable=0;points=[];autosize=1;strokeColor=none;fillColor=none;fontSize=14;" parent="1" vertex="1">
          <mxGeometry x="1410" y="858" width="30" height="30" as="geometry" />
        </mxCell>
        <mxCell id="Mne86STeSMznGKmQwHmi-87" value="" style="rounded=0;orthogonalLoop=1;jettySize=auto;html=1;endArrow=diamondThin;endFill=0;fontSize=13;edgeStyle=orthogonalEdgeStyle;entryX=-0.004;entryY=0.183;entryDx=0;entryDy=0;entryPerimeter=0;exitX=1.011;exitY=0.251;exitDx=0;exitDy=0;exitPerimeter=0;" parent="1" source="Mne86STeSMznGKmQwHmi-50" target="Mne86STeSMznGKmQwHmi-28" edge="1">
          <mxGeometry relative="1" as="geometry">
            <mxPoint x="620" y="690" as="sourcePoint" />
            <mxPoint x="590" y="820" as="targetPoint" />
          </mxGeometry>
        </mxCell>
        <mxCell id="Mne86STeSMznGKmQwHmi-88" value="" style="rounded=0;orthogonalLoop=1;jettySize=auto;html=1;endArrow=diamondThin;endFill=0;fontSize=13;edgeStyle=orthogonalEdgeStyle;entryX=-0.004;entryY=0.897;entryDx=0;entryDy=0;entryPerimeter=0;exitX=0.999;exitY=0.365;exitDx=0;exitDy=0;exitPerimeter=0;" parent="1" source="Mne86STeSMznGKmQwHmi-54" target="Mne86STeSMznGKmQwHmi-28" edge="1">
          <mxGeometry relative="1" as="geometry">
            <mxPoint x="482" y="497" as="sourcePoint" />
            <mxPoint x="789" y="594" as="targetPoint" />
          </mxGeometry>
        </mxCell>
        <mxCell id="Mne86STeSMznGKmQwHmi-89" value="1" style="text;html=1;align=center;verticalAlign=middle;resizable=0;points=[];autosize=1;strokeColor=none;fillColor=none;fontSize=14;" parent="1" vertex="1">
          <mxGeometry x="750" y="717" width="30" height="30" as="geometry" />
        </mxCell>
        <mxCell id="Mne86STeSMznGKmQwHmi-90" value="1" style="text;html=1;align=center;verticalAlign=middle;resizable=0;points=[];autosize=1;strokeColor=none;fillColor=none;fontSize=14;" parent="1" vertex="1">
          <mxGeometry x="480" y="460" width="30" height="30" as="geometry" />
        </mxCell>
        <mxCell id="Mne86STeSMznGKmQwHmi-91" value="1" style="text;html=1;align=center;verticalAlign=middle;resizable=0;points=[];autosize=1;strokeColor=none;fillColor=none;fontSize=14;" parent="1" vertex="1">
          <mxGeometry x="480" y="698.25" width="30" height="30" as="geometry" />
        </mxCell>
        <mxCell id="Mne86STeSMznGKmQwHmi-92" value="1" style="text;html=1;align=center;verticalAlign=middle;resizable=0;points=[];autosize=1;strokeColor=none;fillColor=none;fontSize=14;" parent="1" vertex="1">
          <mxGeometry x="740" y="560" width="30" height="30" as="geometry" />
        </mxCell>
        <mxCell id="Mne86STeSMznGKmQwHmi-93" value="" style="rounded=0;orthogonalLoop=1;jettySize=auto;html=1;endArrow=diamondThin;endFill=0;fontSize=13;edgeStyle=orthogonalEdgeStyle;entryX=0.014;entryY=0.35;entryDx=0;entryDy=0;entryPerimeter=0;exitX=1.033;exitY=0.849;exitDx=0;exitDy=0;exitPerimeter=0;" parent="1" source="Mne86STeSMznGKmQwHmi-15" target="Mne86STeSMznGKmQwHmi-35" edge="1">
          <mxGeometry relative="1" as="geometry">
            <mxPoint x="1710" y="738" as="sourcePoint" />
            <mxPoint x="2009" y="761" as="targetPoint" />
          </mxGeometry>
        </mxCell>
        <mxCell id="Mne86STeSMznGKmQwHmi-94" value="1" style="text;html=1;align=center;verticalAlign=middle;resizable=0;points=[];autosize=1;strokeColor=none;fillColor=none;fontSize=14;" parent="1" vertex="1">
          <mxGeometry x="1630" y="600" width="30" height="30" as="geometry" />
        </mxCell>
        <mxCell id="Mne86STeSMznGKmQwHmi-95" value="1" style="text;html=1;align=center;verticalAlign=middle;resizable=0;points=[];autosize=1;strokeColor=none;fillColor=none;fontSize=14;" parent="1" vertex="1">
          <mxGeometry x="1850" y="600" width="30" height="30" as="geometry" />
        </mxCell>
        <mxCell id="R2cyPmytf_Dg0PAKIns5-1" value="Origin" style="swimlane;html=1;fontStyle=1;align=center;verticalAlign=top;childLayout=stackLayout;horizontal=1;startSize=26;horizontalStack=0;resizeParent=1;resizeLast=0;collapsible=1;marginBottom=0;swimlaneFillColor=#ffffff;rounded=0;shadow=0;comic=0;labelBackgroundColor=none;strokeWidth=1;fillColor=none;fontFamily=Verdana;fontSize=12" vertex="1" parent="1">
          <mxGeometry x="800" y="1120" width="170" height="220" as="geometry" />
        </mxCell>
        <mxCell id="R2cyPmytf_Dg0PAKIns5-2" value="- id: int" style="text;html=1;strokeColor=none;fillColor=none;align=left;verticalAlign=top;spacingLeft=4;spacingRight=4;whiteSpace=wrap;overflow=hidden;rotatable=0;points=[[0,0.5],[1,0.5]];portConstraint=eastwest;" vertex="1" parent="R2cyPmytf_Dg0PAKIns5-1">
          <mxGeometry y="26" width="170" height="26" as="geometry" />
        </mxCell>
        <mxCell id="R2cyPmytf_Dg0PAKIns5-3" value="&lt;div&gt;- CountryId: int&lt;/div&gt;&lt;div&gt;&lt;br&gt;&lt;/div&gt;&lt;div&gt;- region: string&lt;/div&gt;&lt;div&gt;&lt;br&gt;&lt;/div&gt;&lt;div&gt;- subRegion: string&lt;/div&gt;&lt;div&gt;&lt;br&gt;&lt;/div&gt;&lt;div&gt;- local: string&lt;/div&gt;" style="text;html=1;strokeColor=none;fillColor=none;align=left;verticalAlign=top;spacingLeft=4;spacingRight=4;whiteSpace=wrap;overflow=hidden;rotatable=0;points=[[0,0.5],[1,0.5]];portConstraint=eastwest;" vertex="1" parent="R2cyPmytf_Dg0PAKIns5-1">
          <mxGeometry y="52" width="170" height="118" as="geometry" />
        </mxCell>
        <mxCell id="R2cyPmytf_Dg0PAKIns5-4" value="" style="line;html=1;strokeWidth=1;fillColor=none;align=left;verticalAlign=middle;spacingTop=-1;spacingLeft=3;spacingRight=3;rotatable=0;labelPosition=right;points=[];portConstraint=eastwest;" vertex="1" parent="R2cyPmytf_Dg0PAKIns5-1">
          <mxGeometry y="170" width="170" height="30" as="geometry" />
        </mxCell>
        <mxCell id="R2cyPmytf_Dg0PAKIns5-5" value="Country" style="swimlane;html=1;fontStyle=1;align=center;verticalAlign=top;childLayout=stackLayout;horizontal=1;startSize=26;horizontalStack=0;resizeParent=1;resizeLast=0;collapsible=1;marginBottom=0;swimlaneFillColor=#ffffff;rounded=0;shadow=0;comic=0;labelBackgroundColor=none;strokeWidth=1;fillColor=none;fontFamily=Verdana;fontSize=12" vertex="1" parent="1">
          <mxGeometry x="500" y="1190" width="170" height="170" as="geometry" />
        </mxCell>
        <mxCell id="R2cyPmytf_Dg0PAKIns5-6" value="- id: int" style="text;html=1;strokeColor=none;fillColor=none;align=left;verticalAlign=top;spacingLeft=4;spacingRight=4;whiteSpace=wrap;overflow=hidden;rotatable=0;points=[[0,0.5],[1,0.5]];portConstraint=eastwest;" vertex="1" parent="R2cyPmytf_Dg0PAKIns5-5">
          <mxGeometry y="26" width="170" height="26" as="geometry" />
        </mxCell>
        <mxCell id="R2cyPmytf_Dg0PAKIns5-7" value="&lt;div&gt;- countryName: int&lt;/div&gt;&lt;div&gt;&lt;br&gt;&lt;/div&gt;&lt;div&gt;- iso: string&lt;/div&gt;" style="text;html=1;strokeColor=none;fillColor=none;align=left;verticalAlign=top;spacingLeft=4;spacingRight=4;whiteSpace=wrap;overflow=hidden;rotatable=0;points=[[0,0.5],[1,0.5]];portConstraint=eastwest;" vertex="1" parent="R2cyPmytf_Dg0PAKIns5-5">
          <mxGeometry y="52" width="170" height="68" as="geometry" />
        </mxCell>
        <mxCell id="R2cyPmytf_Dg0PAKIns5-8" value="" style="line;html=1;strokeWidth=1;fillColor=none;align=left;verticalAlign=middle;spacingTop=-1;spacingLeft=3;spacingRight=3;rotatable=0;labelPosition=right;points=[];portConstraint=eastwest;" vertex="1" parent="R2cyPmytf_Dg0PAKIns5-5">
          <mxGeometry y="120" width="170" height="30" as="geometry" />
        </mxCell>
        <mxCell id="R2cyPmytf_Dg0PAKIns5-9" value="Growth Conditions" style="swimlane;html=1;fontStyle=1;align=center;verticalAlign=top;childLayout=stackLayout;horizontal=1;startSize=26;horizontalStack=0;resizeParent=1;resizeLast=0;collapsible=1;marginBottom=0;swimlaneFillColor=#ffffff;rounded=0;shadow=0;comic=0;labelBackgroundColor=none;strokeWidth=1;fillColor=none;fontFamily=Verdana;fontSize=12" vertex="1" parent="1">
          <mxGeometry x="800" y="1380" width="170" height="170" as="geometry" />
        </mxCell>
        <mxCell id="R2cyPmytf_Dg0PAKIns5-10" value="- id: int" style="text;html=1;strokeColor=none;fillColor=none;align=left;verticalAlign=top;spacingLeft=4;spacingRight=4;whiteSpace=wrap;overflow=hidden;rotatable=0;points=[[0,0.5],[1,0.5]];portConstraint=eastwest;" vertex="1" parent="R2cyPmytf_Dg0PAKIns5-9">
          <mxGeometry y="26" width="170" height="26" as="geometry" />
        </mxCell>
        <mxCell id="R2cyPmytf_Dg0PAKIns5-11" value="&lt;div&gt;- temperature: int&lt;/div&gt;&lt;div&gt;&lt;br&gt;&lt;/div&gt;&lt;div&gt;- cultureMedium: string&lt;/div&gt;" style="text;html=1;strokeColor=none;fillColor=none;align=left;verticalAlign=top;spacingLeft=4;spacingRight=4;whiteSpace=wrap;overflow=hidden;rotatable=0;points=[[0,0.5],[1,0.5]];portConstraint=eastwest;" vertex="1" parent="R2cyPmytf_Dg0PAKIns5-9">
          <mxGeometry y="52" width="170" height="68" as="geometry" />
        </mxCell>
        <mxCell id="R2cyPmytf_Dg0PAKIns5-12" value="" style="line;html=1;strokeWidth=1;fillColor=none;align=left;verticalAlign=middle;spacingTop=-1;spacingLeft=3;spacingRight=3;rotatable=0;labelPosition=right;points=[];portConstraint=eastwest;" vertex="1" parent="R2cyPmytf_Dg0PAKIns5-9">
          <mxGeometry y="120" width="170" height="30" as="geometry" />
        </mxCell>
        <mxCell id="R2cyPmytf_Dg0PAKIns5-13" value="Morphology" style="swimlane;html=1;fontStyle=1;align=center;verticalAlign=top;childLayout=stackLayout;horizontal=1;startSize=26;horizontalStack=0;resizeParent=1;resizeLast=0;collapsible=1;marginBottom=0;swimlaneFillColor=#ffffff;rounded=0;shadow=0;comic=0;labelBackgroundColor=none;strokeWidth=1;fillColor=none;fontFamily=Verdana;fontSize=12" vertex="1" parent="1">
          <mxGeometry x="800" y="1580" width="170" height="320" as="geometry" />
        </mxCell>
        <mxCell id="R2cyPmytf_Dg0PAKIns5-14" value="- id: int" style="text;html=1;strokeColor=none;fillColor=none;align=left;verticalAlign=top;spacingLeft=4;spacingRight=4;whiteSpace=wrap;overflow=hidden;rotatable=0;points=[[0,0.5],[1,0.5]];portConstraint=eastwest;" vertex="1" parent="R2cyPmytf_Dg0PAKIns5-13">
          <mxGeometry y="26" width="170" height="26" as="geometry" />
        </mxCell>
        <mxCell id="R2cyPmytf_Dg0PAKIns5-15" value="&lt;div&gt;- colonyColour: string&lt;/div&gt;&lt;div&gt;&lt;br&gt;&lt;/div&gt;&lt;div&gt;- filamentsHyphae: string&lt;/div&gt;&lt;div&gt;&lt;br&gt;&lt;/div&gt;&lt;div&gt;- opacity: string&lt;/div&gt;&lt;div&gt;&lt;br&gt;&lt;/div&gt;&lt;div&gt;- form: string&lt;/div&gt;&lt;div&gt;&lt;br&gt;&lt;/div&gt;&lt;div&gt;- margin: string&lt;/div&gt;&lt;div&gt;&lt;br&gt;&lt;/div&gt;&lt;div&gt;- surfaceApperance: string&lt;/div&gt;&lt;div&gt;&lt;br&gt;&lt;/div&gt;&lt;div&gt;- elevation: string&lt;/div&gt;&lt;div&gt;&lt;br&gt;&lt;/div&gt;&lt;div&gt;- image: blob&lt;/div&gt;" style="text;html=1;strokeColor=none;fillColor=none;align=left;verticalAlign=top;spacingLeft=4;spacingRight=4;whiteSpace=wrap;overflow=hidden;rotatable=0;points=[[0,0.5],[1,0.5]];portConstraint=eastwest;" vertex="1" parent="R2cyPmytf_Dg0PAKIns5-13">
          <mxGeometry y="52" width="170" height="228" as="geometry" />
        </mxCell>
        <mxCell id="R2cyPmytf_Dg0PAKIns5-16" value="" style="line;html=1;strokeWidth=1;fillColor=none;align=left;verticalAlign=middle;spacingTop=-1;spacingLeft=3;spacingRight=3;rotatable=0;labelPosition=right;points=[];portConstraint=eastwest;" vertex="1" parent="R2cyPmytf_Dg0PAKIns5-13">
          <mxGeometry y="280" width="170" height="30" as="geometry" />
        </mxCell>
        <mxCell id="R2cyPmytf_Dg0PAKIns5-17" value="DNA&lt;span style=&quot;white-space: pre;&quot;&gt;&#x9;&lt;/span&gt;" style="swimlane;html=1;fontStyle=1;align=center;verticalAlign=top;childLayout=stackLayout;horizontal=1;startSize=26;horizontalStack=0;resizeParent=1;resizeLast=0;collapsible=1;marginBottom=0;swimlaneFillColor=#ffffff;rounded=0;shadow=0;comic=0;labelBackgroundColor=none;strokeWidth=1;fillColor=none;fontFamily=Verdana;fontSize=12" vertex="1" parent="1">
          <mxGeometry x="800" y="1940" width="170" height="390" as="geometry" />
        </mxCell>
        <mxCell id="R2cyPmytf_Dg0PAKIns5-18" value="- id: int" style="text;html=1;strokeColor=none;fillColor=none;align=left;verticalAlign=top;spacingLeft=4;spacingRight=4;whiteSpace=wrap;overflow=hidden;rotatable=0;points=[[0,0.5],[1,0.5]];portConstraint=eastwest;" vertex="1" parent="R2cyPmytf_Dg0PAKIns5-17">
          <mxGeometry y="26" width="170" height="26" as="geometry" />
        </mxCell>
        <mxCell id="R2cyPmytf_Dg0PAKIns5-19" value="&lt;div&gt;- sequences: string&lt;/div&gt;&lt;div&gt;&lt;br&gt;&lt;/div&gt;&lt;div&gt;- dna_ng_ul_QB: int&lt;/div&gt;&lt;div&gt;&lt;br&gt;&lt;/div&gt;&lt;div&gt;- abs260_280_QB: int&lt;/div&gt;&lt;div&gt;&lt;br&gt;&lt;/div&gt;&lt;div&gt;- abs260_230_QB: int&lt;/div&gt;&lt;div&gt;&lt;br&gt;&lt;/div&gt;&lt;div&gt;- volume_dna_QB: int&lt;/div&gt;&lt;div&gt;&lt;br&gt;&lt;/div&gt;&lt;div&gt;- dna_QB: int&lt;/div&gt;&lt;div&gt;&lt;br&gt;&lt;/div&gt;&lt;div&gt;- agua_BM_QB: int&lt;/div&gt;&lt;div&gt;&lt;br&gt;&lt;/div&gt;&lt;div&gt;- volume_final_QB: int&lt;/div&gt;&lt;div&gt;&lt;br&gt;&lt;/div&gt;&lt;div&gt;-&amp;nbsp;data_QB: string&lt;/div&gt;&lt;div&gt;&lt;br&gt;&lt;/div&gt;&lt;div&gt;- linha_QB: string&lt;/div&gt;&lt;div&gt;&lt;br&gt;&lt;/div&gt;&lt;div&gt;- coluna_QB: string&lt;/div&gt;" style="text;html=1;strokeColor=none;fillColor=none;align=left;verticalAlign=top;spacingLeft=4;spacingRight=4;whiteSpace=wrap;overflow=hidden;rotatable=0;points=[[0,0.5],[1,0.5]];portConstraint=eastwest;" vertex="1" parent="R2cyPmytf_Dg0PAKIns5-17">
          <mxGeometry y="52" width="170" height="308" as="geometry" />
        </mxCell>
        <mxCell id="R2cyPmytf_Dg0PAKIns5-20" value="" style="line;html=1;strokeWidth=1;fillColor=none;align=left;verticalAlign=middle;spacingTop=-1;spacingLeft=3;spacingRight=3;rotatable=0;labelPosition=right;points=[];portConstraint=eastwest;" vertex="1" parent="R2cyPmytf_Dg0PAKIns5-17">
          <mxGeometry y="360" width="170" height="30" as="geometry" />
        </mxCell>
        <mxCell id="R2cyPmytf_Dg0PAKIns5-21" value="Storage Details" style="swimlane;html=1;fontStyle=1;align=center;verticalAlign=top;childLayout=stackLayout;horizontal=1;startSize=26;horizontalStack=0;resizeParent=1;resizeLast=0;collapsible=1;marginBottom=0;swimlaneFillColor=#ffffff;rounded=0;shadow=0;comic=0;labelBackgroundColor=none;strokeWidth=1;fillColor=none;fontFamily=Verdana;fontSize=12" vertex="1" parent="1">
          <mxGeometry x="1420" y="1120" width="170" height="220" as="geometry" />
        </mxCell>
        <mxCell id="R2cyPmytf_Dg0PAKIns5-22" value="- id: int" style="text;html=1;strokeColor=none;fillColor=none;align=left;verticalAlign=top;spacingLeft=4;spacingRight=4;whiteSpace=wrap;overflow=hidden;rotatable=0;points=[[0,0.5],[1,0.5]];portConstraint=eastwest;" vertex="1" parent="R2cyPmytf_Dg0PAKIns5-21">
          <mxGeometry y="26" width="170" height="26" as="geometry" />
        </mxCell>
        <mxCell id="R2cyPmytf_Dg0PAKIns5-23" value="&lt;div&gt;- freezerLocation: string&lt;/div&gt;&lt;div&gt;&lt;br&gt;&lt;/div&gt;&lt;div&gt;- temperature: int&lt;/div&gt;&lt;div&gt;&lt;br&gt;&lt;/div&gt;&lt;div&gt;- perservationMedium: string&lt;/div&gt;&lt;div&gt;&lt;br&gt;&lt;/div&gt;&lt;div&gt;- box: string&lt;/div&gt;" style="text;html=1;strokeColor=none;fillColor=none;align=left;verticalAlign=top;spacingLeft=4;spacingRight=4;whiteSpace=wrap;overflow=hidden;rotatable=0;points=[[0,0.5],[1,0.5]];portConstraint=eastwest;" vertex="1" parent="R2cyPmytf_Dg0PAKIns5-21">
          <mxGeometry y="52" width="170" height="118" as="geometry" />
        </mxCell>
        <mxCell id="R2cyPmytf_Dg0PAKIns5-24" value="" style="line;html=1;strokeWidth=1;fillColor=none;align=left;verticalAlign=middle;spacingTop=-1;spacingLeft=3;spacingRight=3;rotatable=0;labelPosition=right;points=[];portConstraint=eastwest;" vertex="1" parent="R2cyPmytf_Dg0PAKIns5-21">
          <mxGeometry y="170" width="170" height="30" as="geometry" />
        </mxCell>
        <mxCell id="R2cyPmytf_Dg0PAKIns5-25" value="Chem Analysis" style="swimlane;html=1;fontStyle=1;align=center;verticalAlign=top;childLayout=stackLayout;horizontal=1;startSize=26;horizontalStack=0;resizeParent=1;resizeLast=0;collapsible=1;marginBottom=0;swimlaneFillColor=#ffffff;rounded=0;shadow=0;comic=0;labelBackgroundColor=none;strokeWidth=1;fillColor=none;fontFamily=Verdana;fontSize=12" vertex="1" parent="1">
          <mxGeometry x="1420" y="1380" width="170" height="200" as="geometry" />
        </mxCell>
        <mxCell id="R2cyPmytf_Dg0PAKIns5-26" value="- id: int" style="text;html=1;strokeColor=none;fillColor=none;align=left;verticalAlign=top;spacingLeft=4;spacingRight=4;whiteSpace=wrap;overflow=hidden;rotatable=0;points=[[0,0.5],[1,0.5]];portConstraint=eastwest;" vertex="1" parent="R2cyPmytf_Dg0PAKIns5-25">
          <mxGeometry y="26" width="170" height="26" as="geometry" />
        </mxCell>
        <mxCell id="R2cyPmytf_Dg0PAKIns5-27" value="&lt;div&gt;- brix: int&lt;/div&gt;&lt;div&gt;&lt;br&gt;&lt;/div&gt;&lt;div&gt;- ph: int&lt;/div&gt;&lt;div&gt;&lt;br&gt;&lt;/div&gt;&lt;div&gt;- densidade: int&lt;/div&gt;&lt;div&gt;&lt;br&gt;&lt;/div&gt;" style="text;html=1;strokeColor=none;fillColor=none;align=left;verticalAlign=top;spacingLeft=4;spacingRight=4;whiteSpace=wrap;overflow=hidden;rotatable=0;points=[[0,0.5],[1,0.5]];portConstraint=eastwest;" vertex="1" parent="R2cyPmytf_Dg0PAKIns5-25">
          <mxGeometry y="52" width="170" height="98" as="geometry" />
        </mxCell>
        <mxCell id="R2cyPmytf_Dg0PAKIns5-28" value="" style="line;html=1;strokeWidth=1;fillColor=none;align=left;verticalAlign=middle;spacingTop=-1;spacingLeft=3;spacingRight=3;rotatable=0;labelPosition=right;points=[];portConstraint=eastwest;" vertex="1" parent="R2cyPmytf_Dg0PAKIns5-25">
          <mxGeometry y="150" width="170" height="30" as="geometry" />
        </mxCell>
        <mxCell id="R2cyPmytf_Dg0PAKIns5-29" value="Screening" style="swimlane;html=1;fontStyle=1;align=center;verticalAlign=top;childLayout=stackLayout;horizontal=1;startSize=26;horizontalStack=0;resizeParent=1;resizeLast=0;collapsible=1;marginBottom=0;swimlaneFillColor=#ffffff;rounded=0;shadow=0;comic=0;labelBackgroundColor=none;strokeWidth=1;fillColor=none;fontFamily=Verdana;fontSize=12" vertex="1" parent="1">
          <mxGeometry x="1420" y="1610" width="170" height="320" as="geometry" />
        </mxCell>
        <mxCell id="R2cyPmytf_Dg0PAKIns5-30" value="- id: int" style="text;html=1;strokeColor=none;fillColor=none;align=left;verticalAlign=top;spacingLeft=4;spacingRight=4;whiteSpace=wrap;overflow=hidden;rotatable=0;points=[[0,0.5],[1,0.5]];portConstraint=eastwest;" vertex="1" parent="R2cyPmytf_Dg0PAKIns5-29">
          <mxGeometry y="26" width="170" height="26" as="geometry" />
        </mxCell>
        <mxCell id="R2cyPmytf_Dg0PAKIns5-31" value="&lt;div&gt;- MeioYpd: int&lt;/div&gt;&lt;div&gt;&lt;br&gt;&lt;/div&gt;&lt;div&gt;- MeioYpd: int&lt;/div&gt;&lt;div&gt;&lt;br&gt;&lt;/div&gt;&lt;div&gt;- MeioCusterrChalk: int&lt;/div&gt;&lt;div&gt;&lt;br&gt;&lt;/div&gt;&lt;div&gt;- MeioSkimMilk24: int&lt;/div&gt;&lt;div&gt;&lt;br&gt;&lt;/div&gt;&lt;div&gt;- MeioSkimMilk48: int&lt;/div&gt;&lt;div&gt;&lt;br&gt;&lt;/div&gt;&lt;div&gt;- MeioBiggyAgar: int&lt;/div&gt;&lt;div&gt;&lt;br&gt;&lt;/div&gt;&lt;div&gt;- MeioEsculina24: int&lt;/div&gt;&lt;div&gt;&lt;br&gt;&lt;/div&gt;&lt;div&gt;- MeioEsculina48: int&lt;/div&gt;" style="text;html=1;strokeColor=none;fillColor=none;align=left;verticalAlign=top;spacingLeft=4;spacingRight=4;whiteSpace=wrap;overflow=hidden;rotatable=0;points=[[0,0.5],[1,0.5]];portConstraint=eastwest;" vertex="1" parent="R2cyPmytf_Dg0PAKIns5-29">
          <mxGeometry y="52" width="170" height="228" as="geometry" />
        </mxCell>
        <mxCell id="R2cyPmytf_Dg0PAKIns5-32" value="" style="line;html=1;strokeWidth=1;fillColor=none;align=left;verticalAlign=middle;spacingTop=-1;spacingLeft=3;spacingRight=3;rotatable=0;labelPosition=right;points=[];portConstraint=eastwest;" vertex="1" parent="R2cyPmytf_Dg0PAKIns5-29">
          <mxGeometry y="280" width="170" height="30" as="geometry" />
        </mxCell>
        <mxCell id="R2cyPmytf_Dg0PAKIns5-33" value="Source" style="swimlane;html=1;fontStyle=1;align=center;verticalAlign=top;childLayout=stackLayout;horizontal=1;startSize=26;horizontalStack=0;resizeParent=1;resizeLast=0;collapsible=1;marginBottom=0;swimlaneFillColor=#ffffff;rounded=0;shadow=0;comic=0;labelBackgroundColor=none;strokeWidth=1;fillColor=none;fontFamily=Verdana;fontSize=12" vertex="1" parent="1">
          <mxGeometry x="1420" y="1960" width="170" height="200" as="geometry" />
        </mxCell>
        <mxCell id="R2cyPmytf_Dg0PAKIns5-34" value="- id: int" style="text;html=1;strokeColor=none;fillColor=none;align=left;verticalAlign=top;spacingLeft=4;spacingRight=4;whiteSpace=wrap;overflow=hidden;rotatable=0;points=[[0,0.5],[1,0.5]];portConstraint=eastwest;" vertex="1" parent="R2cyPmytf_Dg0PAKIns5-33">
          <mxGeometry y="26" width="170" height="26" as="geometry" />
        </mxCell>
        <mxCell id="R2cyPmytf_Dg0PAKIns5-35" value="&lt;div&gt;- sampleType: string&lt;/div&gt;&lt;div&gt;&lt;br&gt;&lt;/div&gt;&lt;div&gt;- originIsolate: string&lt;/div&gt;&lt;div&gt;&lt;br&gt;&lt;/div&gt;&lt;div&gt;- isolateSource: string&lt;/div&gt;&lt;div&gt;&lt;br&gt;&lt;/div&gt;" style="text;html=1;strokeColor=none;fillColor=none;align=left;verticalAlign=top;spacingLeft=4;spacingRight=4;whiteSpace=wrap;overflow=hidden;rotatable=0;points=[[0,0.5],[1,0.5]];portConstraint=eastwest;" vertex="1" parent="R2cyPmytf_Dg0PAKIns5-33">
          <mxGeometry y="52" width="170" height="98" as="geometry" />
        </mxCell>
        <mxCell id="R2cyPmytf_Dg0PAKIns5-36" value="" style="line;html=1;strokeWidth=1;fillColor=none;align=left;verticalAlign=middle;spacingTop=-1;spacingLeft=3;spacingRight=3;rotatable=0;labelPosition=right;points=[];portConstraint=eastwest;" vertex="1" parent="R2cyPmytf_Dg0PAKIns5-33">
          <mxGeometry y="150" width="170" height="30" as="geometry" />
        </mxCell>
        <mxCell id="R2cyPmytf_Dg0PAKIns5-37" value="PCR" style="swimlane;html=1;fontStyle=1;align=center;verticalAlign=top;childLayout=stackLayout;horizontal=1;startSize=26;horizontalStack=0;resizeParent=1;resizeLast=0;collapsible=1;marginBottom=0;swimlaneFillColor=#ffffff;rounded=0;shadow=0;comic=0;labelBackgroundColor=none;strokeWidth=1;fillColor=none;fontFamily=Verdana;fontSize=12" vertex="1" parent="1">
          <mxGeometry x="1100" y="1960" width="170" height="320" as="geometry" />
        </mxCell>
        <mxCell id="R2cyPmytf_Dg0PAKIns5-38" value="- id: int" style="text;html=1;strokeColor=none;fillColor=none;align=left;verticalAlign=top;spacingLeft=4;spacingRight=4;whiteSpace=wrap;overflow=hidden;rotatable=0;points=[[0,0.5],[1,0.5]];portConstraint=eastwest;" vertex="1" parent="R2cyPmytf_Dg0PAKIns5-37">
          <mxGeometry y="26" width="170" height="26" as="geometry" />
        </mxCell>
        <mxCell id="R2cyPmytf_Dg0PAKIns5-39" value="&lt;div&gt;- pcr: string&lt;/div&gt;&lt;div&gt;&lt;br&gt;&lt;/div&gt;&lt;div&gt;- dataGel: DateTime&lt;/div&gt;&lt;div&gt;&lt;br&gt;&lt;/div&gt;&lt;div&gt;- pcr12: string&lt;/div&gt;&lt;div&gt;&lt;br&gt;&lt;/div&gt;&lt;div&gt;- dataGel13: DateTime&lt;/div&gt;&lt;div&gt;&lt;br&gt;&lt;/div&gt;&lt;div&gt;- pcrM13: string&lt;/div&gt;&lt;div&gt;&lt;br&gt;&lt;/div&gt;&lt;div&gt;- data&lt;span style=&quot;white-space: pre;&quot;&gt;GelM13&lt;/span&gt;: DateTime&lt;/div&gt;&lt;div&gt;&lt;br&gt;&lt;/div&gt;&lt;div&gt;- tina: string&lt;/div&gt;&lt;div&gt;&lt;br&gt;&lt;/div&gt;&lt;div&gt;- pente: string&lt;/div&gt;" style="text;html=1;strokeColor=none;fillColor=none;align=left;verticalAlign=top;spacingLeft=4;spacingRight=4;whiteSpace=wrap;overflow=hidden;rotatable=0;points=[[0,0.5],[1,0.5]];portConstraint=eastwest;" vertex="1" parent="R2cyPmytf_Dg0PAKIns5-37">
          <mxGeometry y="52" width="170" height="228" as="geometry" />
        </mxCell>
        <mxCell id="R2cyPmytf_Dg0PAKIns5-40" value="" style="line;html=1;strokeWidth=1;fillColor=none;align=left;verticalAlign=middle;spacingTop=-1;spacingLeft=3;spacingRight=3;rotatable=0;labelPosition=right;points=[];portConstraint=eastwest;" vertex="1" parent="R2cyPmytf_Dg0PAKIns5-37">
          <mxGeometry y="280" width="170" height="30" as="geometry" />
        </mxCell>
        <mxCell id="R2cyPmytf_Dg0PAKIns5-47" value="" style="rounded=0;orthogonalLoop=1;jettySize=auto;html=1;endArrow=diamondThin;endFill=0;fontSize=13;exitX=-0.007;exitY=0.233;exitDx=0;exitDy=0;edgeStyle=orthogonalEdgeStyle;exitPerimeter=0;entryX=1.007;entryY=0.758;entryDx=0;entryDy=0;entryPerimeter=0;" edge="1" parent="1" source="R2cyPmytf_Dg0PAKIns5-23" target="Mne86STeSMznGKmQwHmi-46">
          <mxGeometry relative="1" as="geometry">
            <mxPoint x="1112" y="1267" as="sourcePoint" />
            <mxPoint x="980" y="1241" as="targetPoint" />
          </mxGeometry>
        </mxCell>
        <mxCell id="R2cyPmytf_Dg0PAKIns5-41" value="" style="rounded=0;orthogonalLoop=1;jettySize=auto;html=1;endArrow=diamondThin;endFill=0;fontSize=13;exitX=1;exitY=0.5;exitDx=0;exitDy=0;edgeStyle=orthogonalEdgeStyle;entryX=0.009;entryY=0.072;entryDx=0;entryDy=0;entryPerimeter=0;" edge="1" parent="1" source="R2cyPmytf_Dg0PAKIns5-3" target="Mne86STeSMznGKmQwHmi-46">
          <mxGeometry relative="1" as="geometry">
            <mxPoint x="980" y="1010" as="sourcePoint" />
            <mxPoint x="1170" y="1200" as="targetPoint" />
          </mxGeometry>
        </mxCell>
        <mxCell id="R2cyPmytf_Dg0PAKIns5-44" value="" style="rounded=0;orthogonalLoop=1;jettySize=auto;html=1;endArrow=diamondThin;endFill=0;fontSize=13;exitX=0.008;exitY=0.624;exitDx=0;exitDy=0;edgeStyle=orthogonalEdgeStyle;entryX=1;entryY=0.5;entryDx=0;entryDy=0;exitPerimeter=0;" edge="1" parent="1" source="Mne86STeSMznGKmQwHmi-46" target="R2cyPmytf_Dg0PAKIns5-11">
          <mxGeometry relative="1" as="geometry">
            <mxPoint x="1112" y="1267" as="sourcePoint" />
            <mxPoint x="980" y="1311" as="targetPoint" />
          </mxGeometry>
        </mxCell>
        <mxCell id="R2cyPmytf_Dg0PAKIns5-45" value="" style="rounded=0;orthogonalLoop=1;jettySize=auto;html=1;endArrow=diamondThin;endFill=0;fontSize=13;exitX=1.004;exitY=0.006;exitDx=0;exitDy=0;edgeStyle=orthogonalEdgeStyle;exitPerimeter=0;entryX=-0.013;entryY=0.673;entryDx=0;entryDy=0;entryPerimeter=0;" edge="1" parent="1" source="R2cyPmytf_Dg0PAKIns5-15" target="Mne86STeSMznGKmQwHmi-46">
          <mxGeometry relative="1" as="geometry">
            <mxPoint x="980" y="1536" as="sourcePoint" />
            <mxPoint x="1111" y="1578" as="targetPoint" />
          </mxGeometry>
        </mxCell>
        <mxCell id="R2cyPmytf_Dg0PAKIns5-46" value="" style="rounded=0;orthogonalLoop=1;jettySize=auto;html=1;endArrow=diamondThin;endFill=0;fontSize=13;exitX=1.02;exitY=0.029;exitDx=0;exitDy=0;edgeStyle=orthogonalEdgeStyle;exitPerimeter=0;entryX=0.01;entryY=0.718;entryDx=0;entryDy=0;entryPerimeter=0;" edge="1" parent="1" source="R2cyPmytf_Dg0PAKIns5-19" target="Mne86STeSMznGKmQwHmi-46">
          <mxGeometry relative="1" as="geometry">
            <mxPoint x="981" y="1643" as="sourcePoint" />
            <mxPoint x="1108" y="1606" as="targetPoint" />
          </mxGeometry>
        </mxCell>
        <mxCell id="R2cyPmytf_Dg0PAKIns5-43" value="" style="rounded=0;orthogonalLoop=1;jettySize=auto;html=1;endArrow=diamondThin;endFill=0;fontSize=13;exitX=1.004;exitY=0.284;exitDx=0;exitDy=0;edgeStyle=orthogonalEdgeStyle;exitPerimeter=0;entryX=0.004;entryY=0.357;entryDx=0;entryDy=0;entryPerimeter=0;" edge="1" parent="1" source="R2cyPmytf_Dg0PAKIns5-7" target="R2cyPmytf_Dg0PAKIns5-3">
          <mxGeometry relative="1" as="geometry">
            <mxPoint x="980" y="1311" as="sourcePoint" />
            <mxPoint x="1112" y="1267" as="targetPoint" />
          </mxGeometry>
        </mxCell>
        <mxCell id="R2cyPmytf_Dg0PAKIns5-48" value="" style="rounded=0;orthogonalLoop=1;jettySize=auto;html=1;endArrow=diamondThin;endFill=0;fontSize=13;exitX=0;exitY=0.5;exitDx=0;exitDy=0;edgeStyle=orthogonalEdgeStyle;entryX=1.015;entryY=0.817;entryDx=0;entryDy=0;entryPerimeter=0;" edge="1" parent="1" source="R2cyPmytf_Dg0PAKIns5-26" target="Mne86STeSMznGKmQwHmi-46">
          <mxGeometry relative="1" as="geometry">
            <mxPoint x="1429" y="1209" as="sourcePoint" />
            <mxPoint x="1281" y="1654" as="targetPoint" />
          </mxGeometry>
        </mxCell>
        <mxCell id="R2cyPmytf_Dg0PAKIns5-49" value="" style="rounded=0;orthogonalLoop=1;jettySize=auto;html=1;endArrow=diamondThin;endFill=0;fontSize=13;exitX=0.007;exitY=0.323;exitDx=0;exitDy=0;edgeStyle=orthogonalEdgeStyle;entryX=1.007;entryY=0.868;entryDx=0;entryDy=0;entryPerimeter=0;exitPerimeter=0;" edge="1" parent="1" source="R2cyPmytf_Dg0PAKIns5-31" target="Mne86STeSMznGKmQwHmi-46">
          <mxGeometry relative="1" as="geometry">
            <mxPoint x="1430" y="1429" as="sourcePoint" />
            <mxPoint x="1283" y="1687" as="targetPoint" />
          </mxGeometry>
        </mxCell>
        <mxCell id="R2cyPmytf_Dg0PAKIns5-50" value="" style="rounded=0;orthogonalLoop=1;jettySize=auto;html=1;endArrow=diamondThin;endFill=0;fontSize=13;exitX=0;exitY=0.5;exitDx=0;exitDy=0;edgeStyle=orthogonalEdgeStyle;entryX=0.993;entryY=0.924;entryDx=0;entryDy=0;entryPerimeter=0;" edge="1" parent="1" source="R2cyPmytf_Dg0PAKIns5-34" target="Mne86STeSMznGKmQwHmi-46">
          <mxGeometry relative="1" as="geometry">
            <mxPoint x="1431" y="1746" as="sourcePoint" />
            <mxPoint x="1281" y="1716" as="targetPoint" />
          </mxGeometry>
        </mxCell>
        <mxCell id="R2cyPmytf_Dg0PAKIns5-51" value="" style="rounded=0;orthogonalLoop=1;jettySize=auto;html=1;endArrow=diamondThin;endFill=0;fontSize=13;exitX=0.5;exitY=0;exitDx=0;exitDy=0;edgeStyle=orthogonalEdgeStyle;entryX=1.015;entryY=0.977;entryDx=0;entryDy=0;entryPerimeter=0;" edge="1" parent="1" source="R2cyPmytf_Dg0PAKIns5-37" target="Mne86STeSMznGKmQwHmi-46">
          <mxGeometry relative="1" as="geometry">
            <mxPoint x="1430" y="2009" as="sourcePoint" />
            <mxPoint x="1279" y="1747" as="targetPoint" />
          </mxGeometry>
        </mxCell>
        <mxCell id="R2cyPmytf_Dg0PAKIns5-52" value="1" style="text;html=1;align=center;verticalAlign=middle;resizable=0;points=[];autosize=1;strokeColor=none;fillColor=none;fontSize=14;" vertex="1" parent="1">
          <mxGeometry x="970" y="1200" width="30" height="30" as="geometry" />
        </mxCell>
        <mxCell id="R2cyPmytf_Dg0PAKIns5-53" value="1" style="text;html=1;align=center;verticalAlign=middle;resizable=0;points=[];autosize=1;strokeColor=none;fillColor=none;fontSize=14;" vertex="1" parent="1">
          <mxGeometry x="1068" y="1230" width="30" height="30" as="geometry" />
        </mxCell>
        <mxCell id="R2cyPmytf_Dg0PAKIns5-54" value="1" style="text;html=1;align=center;verticalAlign=middle;resizable=0;points=[];autosize=1;strokeColor=none;fillColor=none;" vertex="1" parent="1">
          <mxGeometry x="670" y="1230" width="30" height="30" as="geometry" />
        </mxCell>
        <mxCell id="R2cyPmytf_Dg0PAKIns5-55" value="1" style="text;html=1;align=center;verticalAlign=middle;resizable=0;points=[];autosize=1;strokeColor=none;fillColor=none;" vertex="1" parent="1">
          <mxGeometry x="770" y="1180" width="30" height="30" as="geometry" />
        </mxCell>
        <mxCell id="R2cyPmytf_Dg0PAKIns5-57" value="1" style="text;html=1;align=center;verticalAlign=middle;resizable=0;points=[];autosize=1;strokeColor=none;fillColor=none;fontSize=14;" vertex="1" parent="1">
          <mxGeometry x="1270" y="1610" width="30" height="30" as="geometry" />
        </mxCell>
        <mxCell id="R2cyPmytf_Dg0PAKIns5-58" value="1" style="text;html=1;align=center;verticalAlign=middle;resizable=0;points=[];autosize=1;strokeColor=none;fillColor=none;fontSize=14;" vertex="1" parent="1">
          <mxGeometry x="1390" y="1170" width="30" height="30" as="geometry" />
        </mxCell>
        <mxCell id="R2cyPmytf_Dg0PAKIns5-59" value="1" style="text;html=1;align=center;verticalAlign=middle;resizable=0;points=[];autosize=1;strokeColor=none;fillColor=none;fontSize=14;" vertex="1" parent="1">
          <mxGeometry x="1390" y="1390" width="30" height="30" as="geometry" />
        </mxCell>
        <mxCell id="R2cyPmytf_Dg0PAKIns5-60" value="1" style="text;html=1;align=center;verticalAlign=middle;resizable=0;points=[];autosize=1;strokeColor=none;fillColor=none;fontSize=14;" vertex="1" parent="1">
          <mxGeometry x="1390" y="1700" width="30" height="30" as="geometry" />
        </mxCell>
        <mxCell id="R2cyPmytf_Dg0PAKIns5-61" value="1" style="text;html=1;align=center;verticalAlign=middle;resizable=0;points=[];autosize=1;strokeColor=none;fillColor=none;fontSize=14;" vertex="1" parent="1">
          <mxGeometry x="1390" y="1970" width="30" height="30" as="geometry" />
        </mxCell>
        <mxCell id="R2cyPmytf_Dg0PAKIns5-62" value="1" style="text;html=1;align=center;verticalAlign=middle;resizable=0;points=[];autosize=1;strokeColor=none;fillColor=none;fontSize=14;" vertex="1" parent="1">
          <mxGeometry x="1290" y="1770" width="30" height="30" as="geometry" />
        </mxCell>
        <mxCell id="R2cyPmytf_Dg0PAKIns5-63" value="1" style="text;html=1;align=center;verticalAlign=middle;resizable=0;points=[];autosize=1;strokeColor=none;fillColor=none;fontSize=14;" vertex="1" parent="1">
          <mxGeometry x="1185" y="1930" width="30" height="30" as="geometry" />
        </mxCell>
        <mxCell id="R2cyPmytf_Dg0PAKIns5-64" value="1" style="text;html=1;align=center;verticalAlign=middle;resizable=0;points=[];autosize=1;strokeColor=none;fillColor=none;fontSize=14;" vertex="1" parent="1">
          <mxGeometry x="970" y="1970" width="30" height="30" as="geometry" />
        </mxCell>
        <mxCell id="R2cyPmytf_Dg0PAKIns5-65" value="1" style="text;html=1;align=center;verticalAlign=middle;resizable=0;points=[];autosize=1;strokeColor=none;fillColor=none;fontSize=11;spacingLeft=0;spacingRight=0;spacingTop=3;" vertex="1" parent="1">
          <mxGeometry x="1070" y="1590" width="30" height="30" as="geometry" />
        </mxCell>
        <mxCell id="R2cyPmytf_Dg0PAKIns5-66" value="1" style="text;html=1;align=center;verticalAlign=middle;resizable=0;points=[];autosize=1;strokeColor=none;fillColor=none;fontSize=14;" vertex="1" parent="1">
          <mxGeometry x="970" y="1600" width="30" height="30" as="geometry" />
        </mxCell>
        <mxCell id="R2cyPmytf_Dg0PAKIns5-67" value="1" style="text;html=1;align=center;verticalAlign=middle;resizable=0;points=[];autosize=1;strokeColor=none;fillColor=none;fontSize=14;" vertex="1" parent="1">
          <mxGeometry x="1070" y="1540" width="30" height="30" as="geometry" />
        </mxCell>
        <mxCell id="R2cyPmytf_Dg0PAKIns5-68" value="1" style="text;html=1;align=center;verticalAlign=middle;resizable=0;points=[];autosize=1;strokeColor=none;fillColor=none;fontSize=14;" vertex="1" parent="1">
          <mxGeometry x="970" y="1440" width="30" height="30" as="geometry" />
        </mxCell>
        <mxCell id="R2cyPmytf_Dg0PAKIns5-69" value="1" style="text;html=1;align=center;verticalAlign=middle;resizable=0;points=[];autosize=1;strokeColor=none;fillColor=none;fontSize=14;" vertex="1" parent="1">
          <mxGeometry x="1270" y="1650" width="30" height="30" as="geometry" />
        </mxCell>
        <mxCell id="R2cyPmytf_Dg0PAKIns5-70" value="1" style="text;html=1;align=center;verticalAlign=middle;resizable=0;points=[];autosize=1;strokeColor=none;fillColor=none;fontSize=14;" vertex="1" parent="1">
          <mxGeometry x="1270" y="1710" width="30" height="30" as="geometry" />
        </mxCell>
      </root>
    </mxGraphModel>
  </diagram>
</mxfile>
